<?xml version="1.0" encoding="UTF-8"?>
<svg id="Camada_2" data-name="Camada 2" xmlns="http://www.w3.org/2000/svg" viewBox="0 0 47.61 98.83">
  <defs>
    <style>
      .cls-1 {
        fill: #FFFFFF;
      }
    </style>
  </defs>
  <g id="Down_Arrow" data-name="Down Arrow">
    <g>
      <path class="cls-1" d="m23.82,97.83c-.73,0-1.29-.44-1.74-.88-2.67-2.55-5.34-5.19-7.93-7.74-3.77-3.71-7.66-7.55-11.6-11.2-.28-.26-.54-.55-.78-.87-1.05-1.4-1.01-2.89.12-3.99.6-.58,1.31-.89,2.06-.89.7,0,1.38.27,1.97.79,1.7,1.48,3.42,3.07,5.13,4.73,1.26,1.22,2.54,2.42,3.82,3.61,1.96,1.82,3.97,3.7,5.88,5.67V5.36c0-.59,0-1.19.12-1.81.29-1.45,1.53-2.54,2.87-2.54.12,0,.24,0,.36.03,1.58.24,2.58,1.28,2.73,2.87.05.47.04.93.04,1.37v81.9c1.96-1.91,9.87-9.6,11.86-11.54.89-.86,1.79-1.69,2.68-2.47.69-.6,1.41-.9,2.14-.9s1.44.31,2.08.92c.61.59.95,1.28.97,2,.02.53-.13,1.33-.93,2.16-1.54,1.59-3.15,3.14-4.71,4.64-.59.56-1.17,1.13-1.76,1.7l-3.79,3.67c-3.24,3.14-6.6,6.39-9.86,9.62-.41.41-.98.88-1.73.88Z"/>
      <!-- <path class="cls-1" d="m23.74,2c.07,0,.14,0,.21.02,1.1.17,1.78.84,1.89,1.97.05.53.03,1.07.03,1.61,0,27.15,0,54.29,0,81.44,0,.33-.02.66,0,.99.03.35-.19.85.18,1.03.06.03.12.04.18.04.29,0,.48-.39.69-.59,4.17-4.05,8.33-8.11,12.51-12.16.86-.83,1.74-1.65,2.64-2.43.51-.44,1-.66,1.49-.66s.94.22,1.38.64c.83.8.94,1.78,0,2.74-2.09,2.16-4.29,4.22-6.45,6.32-4.56,4.43-9.14,8.83-13.66,13.29-.4.4-.71.59-1.02.59s-.64-.21-1.05-.6c-6.56-6.27-12.88-12.79-19.55-18.95-.24-.22-.46-.47-.66-.74-.76-1.01-.75-1.93.01-2.67.4-.39.87-.61,1.36-.61.44,0,.89.17,1.32.55,1.74,1.52,3.44,3.09,5.09,4.7,3.6,3.51,7.43,6.79,10.84,10.49.1.11.25.17.55.36v-2.1c0-27.23,0-54.46,0-81.68,0-.62-.02-1.25.1-1.85.2-.99,1.04-1.74,1.89-1.74m0-2c-1.81,0-3.47,1.44-3.85,3.34-.15.72-.14,1.41-.14,2.02v.22c0,24.26,0,48.51,0,72.77v6.29c-1.39-1.37-2.81-2.69-4.2-3.98-1.26-1.17-2.56-2.38-3.8-3.6-1.72-1.68-3.46-3.28-5.17-4.77-.78-.68-1.69-1.04-2.63-1.04-1,0-1.98.42-2.75,1.17-1.5,1.46-1.58,3.49-.22,5.31.28.37.58.71.9,1,3.94,3.64,7.83,7.48,11.6,11.19,2.58,2.55,5.25,5.18,7.93,7.74.56.54,1.35,1.15,2.43,1.15s1.92-.67,2.43-1.17c3.28-3.24,6.65-6.5,9.91-9.66,1.25-1.21,2.49-2.41,3.74-3.62.58-.57,1.17-1.13,1.76-1.7,1.57-1.51,3.19-3.06,4.74-4.67,1.05-1.08,1.24-2.17,1.22-2.89-.02-.68-.26-1.71-1.27-2.68-1.03-.99-2.07-1.2-2.77-1.2-.98,0-1.92.39-2.8,1.15-.9.78-1.81,1.62-2.72,2.5-1.98,1.93-3.96,3.85-5.95,5.78-1.41,1.37-2.81,2.74-4.22,4.11V5.6s0-.33,0-.33c0-.45,0-.95-.04-1.47-.2-2.05-1.54-3.45-3.58-3.76-.17-.03-.34-.04-.51-.04h0Z"/> -->
    </g>
  </g>
</svg>