<?xml version="1.0" encoding="utf-8"?>
<!-- Generator: Adobe Illustrator 27.3.1, SVG Export Plug-In . SVG Version: 6.00 Build 0)  -->
<svg version="1.1" id="Camada_2_00000080189001164369586280000010208145613747441050_"
	 xmlns="http://www.w3.org/2000/svg" xmlns:xlink="http://www.w3.org/1999/xlink" x="0px" y="0px" viewBox="0 0 70.5 79"
	 style="enable-background:new 0 0 70.5 79;" xml:space="preserve">
<style type="text/css">
	.st0{fill:#FFFFFF;}
</style>
<g id="CSS3">
	<path class="st0" d="M35.2,0c10.2,0,20.4,0,30.6,0c0.7,0,1.5,0,2.2,0.2c1.6,0.5,2.5,1.6,2.5,3.3c0.1,3.1-0.6,6.1-0.9,9.1
		c-0.7,6.5-1.4,13.1-2.1,19.6c-0.8,6.8-1.6,13.6-2.3,20.4c-0.6,4.9-1.1,9.8-1.6,14.7c-0.3,3.2-1,4.2-4.1,5.1
		c-7.3,2.1-14.7,4.2-22,6.3c-1.6,0.4-3,0.4-4.6-0.1c-7.4-2.1-14.7-4.2-22.1-6.3c-2.1-0.6-3.4-1.8-3.7-4.1c-0.5-5-1.1-9.9-1.6-14.9
		C4.8,47,4,40.6,3.3,34.3c-0.6-5.5-1.2-11-1.8-16.5C1,13.7,0.6,9.6,0.1,5.5C0,4.9,0,4.2,0,3.6c0-1.8,1-2.9,2.7-3.4
		C3.4,0,4.1,0,4.9,0C15,0,25.1,0,35.2,0z M35.3,16.7c-5.9,0-11.7,0-17.6,0c-1.2,0-1.6,0.4-1.5,1.6c0.1,1.3,0.2,2.5,0.3,3.8
		c0.1,2.7,0.1,2.7,2.7,2.7c8.4,0,16.8,0,25.2,0c1.1,0,1.5,0.3,1.3,1.4c-0.2,1.9-0.3,3.8-0.5,5.7c-0.2,1.7-0.2,1.7-1.9,1.7
		c-5.4,0-10.7,0-16.1,0c-1,0-1.4,0.3-1.4,1.3c0.1,1.6,0.2,3.3,0.2,4.9c0.1,1.8,0,1.8,1.8,1.8c5.1,0,10.2,0,15.4,0
		c0.8,0,1.5,0,1.4,1.2c-0.2,2.3-0.3,4.7-0.5,7c0,1-0.5,1.5-1.4,1.8c-2.2,0.7-4.4,1.5-6.6,2.2c-0.6,0.2-1.2,0.2-1.8,0
		c-2.2-0.7-4.4-1.5-6.6-2.2c-0.9-0.3-1.3-0.8-1.3-1.7c0-0.9-0.1-1.7-0.1-2.6c0-0.9-0.4-1.3-1.3-1.3c-1.9,0.1-3.9,0-5.8,0
		c-0.9,0-1.1,0.4-1,1.2c0.2,2.9,0.4,5.8,0.4,8.8c0,1,0.4,1.5,1.3,1.8c4.8,1.5,9.6,3.1,14.5,4.7c0.7,0.2,1.3,0.2,1.9,0
		c4.9-1.6,9.7-3.2,14.6-4.8c0.7-0.2,1-0.6,1-1.3c0-3.8,0.4-7.5,0.5-11.2c0.1-3,0.3-5.9,0.5-8.9c0.4-6,0.8-12,1.2-18
		c0.1-1.2-0.3-1.6-1.5-1.6C46.9,16.8,41.1,16.7,35.3,16.7L35.3,16.7z"/>
</g>
</svg>
