<?xml version="1.0" encoding="utf-8"?>
<!-- Generator: Adobe Illustrator 27.3.1, SVG Export Plug-In . SVG Version: 6.00 Build 0)  -->
<svg version="1.1" id="Camada_1" xmlns="http://www.w3.org/2000/svg" xmlns:xlink="http://www.w3.org/1999/xlink" x="0px" y="0px"
	 viewBox="0 0 150 150" style="enable-background:new 0 0 150 150;" xml:space="preserve">
<style type="text/css">
	.st0{fill:#FFFFFF;}
</style>
<path class="st0" d="M55.5,6C41.5,6,30,17.5,30,31.5c0,9.9,5.8,18.3,14.1,22.5C35.8,58.2,30,66.6,30,76.5S35.8,94.8,44.1,99
	c-8.3,4.2-14.1,12.6-14.1,22.5c0,14,11.5,25.5,25.5,25.5S81,135.5,81,121.5V99V89c4,7.6,11.8,13,21,13c13.2,0,24-10.8,24-24
	c0-10.9-7.4-19.7-17.4-22.7c10-3.4,17.4-12.7,17.4-23.8c0-14-11.5-25.5-25.5-25.5H78H55.5z M55.5,12H75v39H55.5
	C44.7,51,36,42.3,36,31.5S44.7,12,55.5,12z M81,12h19.5c10.8,0,19.5,8.7,19.5,19.5S111.3,51,100.5,51H81V12z M55.5,57H75v39H55.5
	C44.7,96,36,87.3,36,76.5S44.7,57,55.5,57z M81,57h10c-4.3,2.3-7.8,5.7-10,10V57z M102,60c10,0,18,8,18,18s-8,18-18,18s-18-8-18-18
	S92,60,102,60z M55.5,102H75v19.5c0,10.8-8.7,19.5-19.5,19.5S36,132.3,36,121.5S44.7,102,55.5,102z"/>
</svg>
