<?xml version="1.0" encoding="utf-8"?>
<!-- Generator: Adobe Illustrator 27.3.1, SVG Export Plug-In . SVG Version: 6.00 Build 0)  -->
<svg version="1.1" id="Camada_2_00000119090451755056950090000006534697467360667316_"
	 xmlns="http://www.w3.org/2000/svg" xmlns:xlink="http://www.w3.org/1999/xlink" x="0px" y="0px" viewBox="0 0 70.5 79.1"
	 style="enable-background:new 0 0 70.5 79.1;" xml:space="preserve">
<style type="text/css">
	.st0{fill:#FFFFFF;}
</style>
<g id="Html_5">
	<path class="st0" d="M35.2,0c10.1,0,20.3,0,30.4,0c0.7,0,1.3,0,2,0.1c1.9,0.4,2.8,1.6,2.8,3.5c0,2.1-0.3,4.3-0.6,6.4
		c-0.6,5-1.1,10.1-1.7,15.1c-0.7,6.1-1.4,12.3-2.1,18.4c-0.6,5.6-1.3,11.2-1.9,16.8c-0.3,2.7-0.7,5.5-0.9,8.2
		c-0.2,1.9-1.3,3.1-3.1,3.6c-3.6,1.1-7.3,2.1-10.9,3.2c-4,1.1-7.9,2.2-11.9,3.4c-1.5,0.4-3,0.4-4.5,0c-7.4-2.2-14.8-4.3-22.2-6.3
		c-2.1-0.6-3.4-1.8-3.7-4.1C6.6,63.4,6,58.5,5.5,53.7C4.7,46.5,3.8,39.3,3,32.1c-0.8-7.2-1.5-14.3-2.3-21.5C0.5,8.3,0,6.1,0,3.8
		C0,1.6,1.2,0.2,3.4,0C4,0,4.6,0,5.1,0C15.2,0,25.2,0,35.2,0L35.2,0z M35.2,16.7c-5.9,0-11.7,0-17.6,0c-1.2,0-1.5,0.4-1.4,1.5
		c0.6,6.8,1.2,13.5,1.7,20.3c0.2,2.3,0.2,2.3,2.5,2.3c7.6,0,15.3,0,22.9,0c0.8,0,1.6,0,1.5,1.2c-0.3,2.7-0.5,5.5-0.7,8.2
		c-0.1,0.9-0.5,1.4-1.4,1.6c-4.5,1.2-9,2-13.6,0.3c-0.1,0-0.2,0-0.4-0.1c-2.5-0.5-2.5-0.6-2.7-3.1c0-0.1,0-0.2,0-0.2
		c0.1-0.8-0.3-1.1-1.1-1.1c-1.8,0-3.5,0-5.3,0c-0.9,0-1.1,0.3-1,1.2c0.3,2.5,0.5,4.9,0.5,7.4c0,1.1,0.4,1.6,1.5,1.9
		c4.3,1.3,8.6,2.7,13,4.1c1,0.3,1.9,0.3,2.9,0c3.7-1.2,7.4-2.5,11.2-3.5c2.1-0.6,3.1-1.3,3.2-3.8c0.4-6.9,1-13.8,1.8-20.7
		c0.1-0.9-0.2-1.3-1.1-1.3c-2.2,0-4.4,0-6.6,0c-6.3,0-12.6,0-18.9,0.1c-0.9,0-1.5-0.2-1.6-1.2c-0.1-1.9-0.3-3.8-0.5-5.7
		c-0.1-1.6,0-1.7,1.6-1.7c8.5,0,16.9,0,25.4,0c0.5,0,1,0,1.5,0c0.6,0,1-0.3,1-1c0.1-1.8,0.3-3.5,0.5-5.3c0.1-1.1-0.3-1.5-1.4-1.5
		C46.9,16.8,41.1,16.7,35.2,16.7L35.2,16.7z"/>
</g>
</svg>
