<?xml version="1.0" encoding="utf-8"?>
<!-- Generator: Adobe Illustrator 27.3.1, SVG Export Plug-In . SVG Version: 6.00 Build 0)  -->
<svg version="1.1" id="Camada_2_00000110472136573853540440000015147653310543799217_"
	 xmlns="http://www.w3.org/2000/svg" xmlns:xlink="http://www.w3.org/1999/xlink" x="0px" y="0px" viewBox="0 0 72.9 72.9"
	 style="enable-background:new 0 0 72.9 72.9;" xml:space="preserve">
<style type="text/css">
	.st0{fill:#FFFFFF;}
</style>
<g id="Adobe_Illustrator">
	<g>
		<path class="st0" d="M72.9,36.6c0,9.5,0,19,0,28.6c0,5-2.7,7.7-7.7,7.7c-19.2,0-38.3,0-57.5,0c-5,0-7.7-2.7-7.7-7.6
			C0,46,0,26.8,0,7.5C0,2.8,2.8,0,7.6,0c19.3,0,38.5,0,57.8,0c4.8,0,7.6,2.8,7.6,7.6C72.9,17.3,72.9,26.9,72.9,36.6L72.9,36.6z
			 M40.8,52.2c0.7,0,1.3,0,2,0c0.9,0,1.1-0.3,0.8-1.1C39.9,41,36.3,30.9,32.7,20.8c-0.2-0.6-0.5-1-1.2-1c-1.5,0-3,0-4.6,0
			c-0.8,0-1.1,0.4-1.4,1.1c-1.8,5.2-3.7,10.4-5.6,15.6c-1.7,4.8-3.4,9.7-5.2,14.5c-0.3,0.7-0.1,1.1,0.7,1.1c1.2,0,2.5,0,3.7,0
			c0.8,0,1.1-0.3,1.3-1c0.6-2,1.4-4.1,2-6.1c0.2-0.9,0.7-1.2,1.6-1.2c3.3,0,6.5,0,9.8,0c1,0,1.5,0.5,1.7,1.4
			c0.4,1.4,0.8,2.8,1.3,4.1C38.1,52.7,37.1,52.1,40.8,52.2L40.8,52.2z M49.2,40L49.2,40c0,3.6,0,7.3,0,10.9c0,1,0.3,1.5,1.3,1.4
			c0.9-0.1,1.8-0.1,2.7,0c1,0.1,1.3-0.3,1.3-1.3c0-7.2,0-14.5,0-21.8c0-0.9-0.3-1.4-1.3-1.3c-0.9,0-1.8,0-2.7,0
			c-1-0.1-1.4,0.4-1.3,1.4C49.2,32.8,49.2,36.4,49.2,40z M51.9,17.7c-2.1,0-3.2,1-3.2,2.8c0,1.9,1.1,3,3.1,3c2,0,3.4-1.3,3.4-3.1
			C55.1,18.7,53.9,17.7,51.9,17.7L51.9,17.7z"/>
		<path class="st0" d="M29,39.5c-1.1,0-2.3,0-3.5,0c-0.9,0-1.2-0.3-0.9-1.2c1.3-3.9,2.5-7.7,3.8-11.6c0.1-0.3,0.2-0.6,0.5-0.6
			c0.4,0,0.5,0.4,0.6,0.7c1.2,3.8,2.4,7.6,3.7,11.4c0.3,1,0.1,1.4-0.9,1.3C31.3,39.5,30.2,39.5,29,39.5z"/>
	</g>
</g>
</svg>
