<?xml version="1.0" encoding="utf-8"?>
<!-- Generator: Adobe Illustrator 27.3.1, SVG Export Plug-In . SVG Version: 6.00 Build 0)  -->
<svg version="1.1" id="Camada_1" xmlns="http://www.w3.org/2000/svg" xmlns:xlink="http://www.w3.org/1999/xlink" x="0px" y="0px"
	 viewBox="0 0 150 150" style="enable-background:new 0 0 150 150;" xml:space="preserve">
<style type="text/css">
	.st0{fill:#FFFFFF;}
</style>
<path class="st0" d="M84.6,0C92.8,19.1,55,30.9,51.5,46.8C48.2,61.4,73.9,78.4,74,78.4c-3.9-6-6.8-11-10.7-20.4
	C56.7,42,103.6,27.6,84.6,0z M109.7,26.4c0,0-33.2,2.1-34.9,23.3c-0.8,9.4,8.7,14.4,9,21.3c0.2,5.6-5.6,10.3-5.6,10.3
	s10.6-2,14-10.6c3.7-9.5-7.2-15.9-6.1-23.5C87.1,40,109.7,26.4,109.7,26.4z M57.6,75.5c0,0-30.4-0.4-30.4,8.2c0,9,39.8,9.6,68.2,4.1
	c0,0,7.5-5.2,9.6-7.1c-18.6,3.8-61,4.2-61,0.9C43.9,78.5,57.6,75.5,57.6,75.5z M116,75.5c-3,0.2-6.2,1.4-9.1,3.5
	c6.8-1.5,12.7,2.8,12.7,7.6c0,10.9-15.8,21.1-15.8,21.1s24.4-2.8,24.4-20.6C128.2,78.9,122.5,75,116,75.5z M50.2,92.2
	c-4.7,0-11.6,3.7-11.6,7.1c0,7,35.1,12.3,61,2.2l-9-5.5C73.1,101.5,40.6,99.7,50.2,92.2z M54.6,107.8c-6.4,0-10.6,3.9-10.6,6.8
	c0,9,38.1,9.9,53.2,0.8l-9.6-6.1C76.4,114,48,114.7,54.6,107.8z M33.3,115.9c-10.4-0.2-17.2,4.5-17.2,8.3
	c0,20.6,106.5,19.7,106.5-1.4c0-3.5-4-5.2-5.5-6c8.7,20.2-87.2,18.6-87.2,6.7c0-2.7,7.1-5.3,13.6-4l-5.5-3.2
	C36.3,116,34.8,115.9,33.3,115.9z M133.9,129.7c-16.2,15.4-57.2,20.9-98.5,11.4C76.6,158.1,133.7,148.6,133.9,129.7z"/>
</svg>
