<?xml version="1.0" encoding="utf-8"?>
<!-- Generator: Adobe Illustrator 27.3.1, SVG Export Plug-In . SVG Version: 6.00 Build 0)  -->
<svg version="1.1" id="Camada_2_00000062168179286745292730000011597458502824287656_"
	 xmlns="http://www.w3.org/2000/svg" xmlns:xlink="http://www.w3.org/1999/xlink" x="0px" y="0px" viewBox="0 0 72.9 72.9"
	 style="enable-background:new 0 0 72.9 72.9;" xml:space="preserve">
<style type="text/css">
	.st0{fill:#FFFFFF;}
</style>
<g id="JavaScript">
	<path class="st0" d="M72.9,36.4c0,9.6,0,19.1,0,28.7c0,5.1-2.7,7.8-7.8,7.8c-19.1,0-38.2,0-57.3,0C2.6,72.9,0,70.3,0,65
		C0,45.9,0,26.9,0,7.8C0,2.7,2.7,0,7.8,0C26.9,0,46,0,65.1,0c5.2,0,7.8,2.7,7.8,7.9C72.9,17.4,72.9,26.9,72.9,36.4z M54.9,63.1
		c2.7,0.1,5.3-0.4,7.6-2.1c3.7-2.8,3.9-9.4,0.3-12.1c-1.4-1-3-1.4-4.7-1.8c-1.9-0.4-3.8-0.6-5.7-1.3c-2-0.8-2.3-2.9-0.8-4.2
		c1.7-1.5,5.6-1.3,6.7,0.7c0.8,1.5,1.9,1.6,3.2,1.5c0.7,0,1.3,0,2,0c1.4,0,1.5-0.2,1.2-1.6c-0.6-2.5-2.2-4.2-4.5-5.1
		c-3.7-1.6-7.5-1.5-11.3,0c-2.9,1.2-4.7,4-4.6,7.1c0.1,3.5,1.7,5.8,5,6.9c1.2,0.4,2.4,0.6,3.6,0.9c1.6,0.4,3.3,0.6,4.8,1.3
		c1.8,0.9,2,2.8,0.4,4.1c-1.8,1.4-5.9,1.3-7.2-0.5c-1-1.5-2.2-1.6-3.6-1.5c-0.8,0-1.7,0-2.5,0c-0.8,0-1,0.3-0.8,1
		c0.6,3,2.4,4.9,5.2,5.9C51,63,52.9,63.2,54.9,63.1L54.9,63.1z M36.4,46.7c0-3.3,0-6,0-8.8c0-1-0.2-1.5-1.4-1.4
		c-1.2,0.1-2.5,0.1-3.7,0c-1.2-0.1-1.5,0.4-1.5,1.6c0,5.1,0,10.1,0,15.2c0,0.5,0,1.1-0.1,1.6c-0.3,1.8-1.3,2.8-2.9,2.9
		c-1.5,0.1-2.7-0.8-3.2-2.5c-0.2-0.7-0.5-1-1.2-0.9c-1.3,0-2.6,0-4,0c-0.9,0-1.2,0.4-1.1,1.2c0.3,2.3,1.1,4.2,3,5.6
		c2.8,2.2,6,2.3,9.2,1.8c3.8-0.6,6-3.2,6.5-7C36.6,52.7,36.2,49.4,36.4,46.7L36.4,46.7z"/>
</g>
</svg>
