<?xml version="1.0" encoding="utf-8"?>
<!-- Generator: Adobe Illustrator 27.3.1, SVG Export Plug-In . SVG Version: 6.00 Build 0)  -->
<svg version="1.1" id="Camada_2_00000085968722524504264140000016962190632013540001_"
	 xmlns="http://www.w3.org/2000/svg" xmlns:xlink="http://www.w3.org/1999/xlink" x="0px" y="0px" viewBox="0 0 72.9 72.9"
	 style="enable-background:new 0 0 72.9 72.9;" xml:space="preserve">
<style type="text/css">
	.st0{fill:#FFFFFF;}
</style>
<g id="Adobe_Photoshop">
	<g>
		<path class="st0" d="M72.9,36.6c0,9.5,0,19,0,28.6c0,5-2.7,7.7-7.7,7.7c-19.2,0-38.3,0-57.5,0c-5,0-7.7-2.7-7.7-7.6
			C0,46,0,26.8,0,7.5C0,2.8,2.8,0,7.6,0c19.3,0,38.5,0,57.8,0c4.8,0,7.6,2.8,7.6,7.6C72.9,17.3,72.9,26.9,72.9,36.6L72.9,36.6z
			 M13.5,36.1c0,4.9,0,9.8,0,14.7c0,1.2,0.4,1.5,1.5,1.5c0.9-0.1,1.8-0.1,2.7,0c1,0.1,1.4-0.3,1.4-1.3c-0.1-2.5,0-5,0-7.4
			c0-1.8,0-1.9,1.9-1.9c2.3,0,4.5,0.1,6.8,0c3.2-0.2,5.8-1.5,7.6-4.2c1.7-2.4,2-5.1,1.8-7.9c-0.3-5.2-4.4-9.2-9.6-9.3
			c-4.2-0.1-8.4,0-12.6-0.1c-1.2,0-1.4,0.4-1.4,1.5C13.5,26.5,13.5,31.3,13.5,36.1z M50.3,52.7c2,0.2,4-0.3,6-1.2
			c3-1.3,4.4-3.7,4.3-7.1c-0.1-2.6-1.7-4.4-4.8-5.5c-0.5-0.2-1.1-0.3-1.7-0.5c-1.8-0.4-3.6-0.8-5.4-1.3c-2.1-0.6-3-1.6-2.9-2.9
			c0.1-1.3,1.3-2.4,3.3-2.8c1.9-0.3,4-0.2,5.2,1.5c0.8,1.1,1.6,1.4,2.8,1.3c0.7,0,1.3,0,2,0c0.9,0,1.2-0.4,0.9-1.2
			c-0.5-1.8-1.4-3.2-3.1-4.1c-3.4-1.8-6.9-2-10.5-1c-1.5,0.4-2.9,1.2-4,2.4c-2.9,3.1-2.1,8.1,1.7,10.1c1.9,1,4,1.3,6,1.8
			c1.4,0.3,2.8,0.5,4,1.3c1.5,0.9,1.7,2.6,0.6,3.8c-1.8,1.9-7.4,2.2-8.9-0.7c-0.3-0.6-0.8-0.8-1.4-0.8c-1.1,0-2.2,0-3.3,0
			c-0.8,0-1.1,0.3-0.8,1.2c0.5,1.8,1.6,3.2,3.2,4.1C45.4,52.4,47.7,52.8,50.3,52.7L50.3,52.7z"/>
		<path class="st0" d="M19.1,30.8c0-1.7,0-3.4,0-5.1c0-0.7,0.2-1.2,1-1.2c1.9,0.2,3.9-0.1,5.8,0.1c3.8,0.4,5.8,2.5,5.7,6.5
			c0,3.5-2.3,5.7-5.9,5.8c-1.7,0.1-3.5,0.1-5.2,0.2c-1.1,0.1-1.5-0.4-1.5-1.5C19.1,34,19.1,32.4,19.1,30.8L19.1,30.8z"/>
	</g>
</g>
</svg>
