<?xml version="1.0" encoding="utf-8"?>
<!-- Generator: Adobe Illustrator 27.3.1, SVG Export Plug-In . SVG Version: 6.00 Build 0)  -->
<svg version="1.1" id="Camada_2_00000109000551588925156100000001997680791162367406_"
	 xmlns="http://www.w3.org/2000/svg" xmlns:xlink="http://www.w3.org/1999/xlink" x="0px" y="0px" viewBox="0 0 47.6 98.8"
	 style="enable-background:new 0 0 47.6 98.8;" xml:space="preserve">
<style type="text/css">
	.st0{fill:#FFFFFF;}
</style>
<g id="Down_Arrow">
	<g>
		<path class="st0" d="M23.8,97.8c-0.7,0-1.3-0.4-1.7-0.9c-2.7-2.6-5.3-5.2-7.9-7.7C10.4,85.5,6.5,81.7,2.5,78
			c-0.3-0.3-0.5-0.6-0.8-0.9c-1-1.4-1-2.9,0.1-4c0.6-0.6,1.3-0.9,2.1-0.9c0.7,0,1.4,0.3,2,0.8c1.7,1.5,3.4,3.1,5.1,4.7
			c1.3,1.2,2.5,2.4,3.8,3.6c2,1.8,4,3.7,5.9,5.7V5.4c0-0.6,0-1.2,0.1-1.8C21.2,2.1,22.4,1,23.7,1c0.1,0,0.2,0,0.4,0
			c1.6,0.2,2.6,1.3,2.7,2.9c0,0.5,0,0.9,0,1.4v81.9c2-1.9,9.9-9.6,11.9-11.5c0.9-0.9,1.8-1.7,2.7-2.5c0.7-0.6,1.4-0.9,2.1-0.9
			s1.4,0.3,2.1,0.9c0.6,0.6,1,1.3,1,2c0,0.5-0.1,1.3-0.9,2.2c-1.5,1.6-3.2,3.1-4.7,4.6c-0.6,0.6-1.2,1.1-1.8,1.7l-3.8,3.7
			c-3.2,3.1-6.6,6.4-9.9,9.6C25.1,97.4,24.6,97.9,23.8,97.8L23.8,97.8z"/>
	</g>
</g>
</svg>
