<?xml version="1.0" encoding="UTF-8"?>
<svg id="Camada_2" data-name="Camada 2" xmlns="http://www.w3.org/2000/svg" viewBox="0 0 70.46 79.04">
  <g id="CSS3">
    <path d="m35.2,0C45.38,0,55.57,0,65.76,0c.74,0,1.48,0,2.21.22,1.6.5,2.46,1.59,2.49,3.28.05,3.06-.57,6.07-.88,9.09-.66,6.55-1.4,13.1-2.14,19.65-.76,6.79-1.57,13.58-2.33,20.37-.56,4.91-1.13,9.82-1.6,14.74-.31,3.19-.96,4.19-4.07,5.08-7.32,2.12-14.67,4.17-21.99,6.29-1.57.45-3.05.4-4.61-.05-7.36-2.14-14.73-4.24-22.11-6.31-2.14-.6-3.43-1.76-3.65-4.08-.49-4.96-1.06-9.91-1.62-14.86-.71-6.38-1.45-12.77-2.16-19.15-.61-5.48-1.19-10.97-1.79-16.46C1.03,13.72.55,9.63.09,5.54.02,4.88,0,4.22,0,3.56.02,1.79.96.63,2.67.17,3.4-.03,4.14,0,4.88,0,14.99,0,25.09,0,35.2,0Zm.08,16.74c-5.86,0-11.72.03-17.57-.02-1.22-.01-1.62.38-1.49,1.56.14,1.27.22,2.55.26,3.82.08,2.66.06,2.66,2.66,2.66,8.41,0,16.83.03,25.24,0,1.11,0,1.45.32,1.33,1.42-.21,1.88-.3,3.78-.48,5.66-.16,1.71-.17,1.71-1.92,1.71-5.36,0-10.73.02-16.09-.01-1,0-1.43.29-1.35,1.34.13,1.64.18,3.29.23,4.94.06,1.77.04,1.77,1.8,1.77,5.12,0,10.23,0,15.35,0,.82,0,1.48.04,1.38,1.17-.19,2.34-.34,4.68-.45,7.03-.04.97-.48,1.51-1.37,1.8-2.19.72-4.38,1.46-6.57,2.2-.61.21-1.2.19-1.81-.02-2.18-.74-4.37-1.49-6.57-2.19-.87-.28-1.3-.79-1.32-1.7-.02-.87-.08-1.73-.1-2.6-.02-.88-.35-1.34-1.34-1.31-1.94.06-3.88.03-5.81,0-.92-.02-1.08.44-1.03,1.25.18,2.92.35,5.84.42,8.77.02.99.35,1.46,1.3,1.76,4.83,1.53,9.65,3.13,14.46,4.71.65.21,1.29.24,1.94.03,4.86-1.59,9.72-3.18,14.58-4.76.67-.22,1.03-.57,1.02-1.32-.05-3.76.41-7.49.55-11.24.12-2.96.34-5.92.53-8.88.38-6,.75-12.01,1.18-18.01.08-1.19-.29-1.57-1.5-1.56-5.82.06-11.63.03-17.45.02Z"/>
  </g>
</svg>