<?xml version="1.0" encoding="UTF-8"?>
<svg id="Camada_2" data-name="Camada 2" xmlns="http://www.w3.org/2000/svg" viewBox="0 0 92.82 59.63">
  <g id="Email">
    <g>
      <path d="m46.43,59.61c-14.85,0-29.69,0-44.54,0-1.79,0-1.8,0-1.8-1.77,0-17.07-.01-34.15,0-51.22,0-.67-.35-1.64.32-1.93.61-.27.97.71,1.43,1.13,8.16,7.57,16.32,15.15,24.45,22.74,4.01,3.74,7.87,7.64,12.01,11.24,5.19,4.52,12.01,4.07,16.99-.63,9.15-8.63,18.38-17.17,27.58-25.74,2.98-2.78,5.96-5.58,8.95-8.36.22-.21.43-.6.81-.39.3.16.16.52.16.8,0,16.29,0,32.58,0,48.87,0,1.28-.07,2.56-.02,3.83.04,1.06-.33,1.47-1.42,1.45-3.09-.05-6.19-.02-9.28-.02-11.88,0-23.75,0-35.63,0Z"/>
      <path d="m87.06.11c-1.08,1.19-2.08,2.44-3.23,3.53-6.31,5.99-12.65,11.95-19.01,17.89-4.58,4.28-9.18,8.53-13.8,12.78-3.21,2.95-6.07,2.96-9.26-.01-8.72-8.12-17.42-16.27-26.12-24.41-3.04-2.85-6.05-5.72-9.08-8.59-.29-.28-.77-.54-.62-.98.17-.48.72-.28,1.1-.28,26.36,0,52.71,0,79.07,0,.35,0,.73-.08.94.07Z"/>
    </g>
  </g>
</svg>