<?xml version="1.0" encoding="UTF-8"?>
<svg id="Camada_2" data-name="Camada 2" xmlns="http://www.w3.org/2000/svg" viewBox="0 0 79.39 78.19">
  <g id="GitHub">
    <path d="m52.8,71.11c-.09-1.72.12-3.7-.19-5.68-.53-3.4-2.07-6.22-4.7-8.45-.31-.26-.78-.49-.62-.96.17-.48.7-.31,1.09-.35,4.51-.41,8.64-1.89,12.17-4.71,5.93-4.73,7.25-13.22,3.01-19.73-1.22-1.87-1.88-3.49-1.23-5.77.6-2.12.64-4.41.07-6.61-.48-1.85-.98-2.11-2.83-1.82-3.08.47-5.73,1.78-7.94,3.97-.48.48-.95.63-1.66.43-5.39-1.51-10.81-1.65-16.23-.19-1.32.36-2.24.24-3.28-.79-2.14-2.12-4.8-3.27-7.84-3.56-1.23-.12-1.81.4-2.16,1.5-.73,2.28-.63,4.61-.1,6.85.54,2.26.21,3.96-1.13,5.99-5.38,8.12-1.95,18.49,7.17,22.42,2.71,1.17,5.5,1.99,8.48,2.04.24,0,.53-.06.65.22.14.34-.12.55-.33.73-1.75,1.44-3.13,3.15-4,5.26-.18.44-.52.73-1.02.81-1.84.3-3.69.35-5.54.39-2.02.05-3.52-.94-4.68-2.55-1.07-1.48-2.34-2.78-4.02-3.59-.3-.14-.59-.3-.91-.38-.53-.13-1.17-.18-1.48.31-.3.47.27.83.56,1.11,1.81,1.69,2.78,3.84,3.67,6.09,1.61,4.06,3.66,5.4,8.02,5.4,1.03,0,2.06.02,3.09,0,.64,0,.99.19,1.01.91.07,2.43-.15,4.86.13,7.29.06.54-.24.59-.71.44-10.64-3.27-18.89-9.55-24.37-19.33C1.16,51.97-.6,44.57.18,36.88,1.64,22.46,8.72,11.37,21.72,4.71c14.34-7.35,28.4-5.98,41.45,3.28,8.8,6.24,14.08,15.06,15.7,25.72,2.22,14.52-2.68,26.58-13.54,36.34-3.3,2.97-7.12,5.04-11.18,6.73-1.25.52-1.34.46-1.35-.85,0-1.53,0-3.05,0-4.83Z"/>
  </g>
</svg>