<?xml version="1.0" encoding="UTF-8"?>
<svg id="Camada_2" data-name="Camada 2" xmlns="http://www.w3.org/2000/svg" viewBox="0 0 70.46 79.05">
  <g id="Html_5" data-name="Html 5">
    <path d="m35.2,0C45.35,0,55.49,0,65.64,0c.66,0,1.33,0,1.97.13,1.87.39,2.82,1.58,2.85,3.49.03,2.15-.35,4.27-.58,6.4-.55,5.03-1.11,10.07-1.67,15.1-.69,6.14-1.38,12.28-2.08,18.41-.63,5.61-1.26,11.21-1.89,16.82-.31,2.74-.65,5.48-.93,8.22-.19,1.94-1.28,3.07-3.07,3.6-3.64,1.07-7.28,2.11-10.93,3.15-3.96,1.13-7.93,2.24-11.89,3.4-1.52.45-2.97.42-4.49-.02-7.4-2.15-14.81-4.27-22.23-6.34-2.14-.6-3.42-1.76-3.65-4.08-.48-4.88-1.06-9.74-1.6-14.61-.8-7.2-1.62-14.4-2.41-21.61-.79-7.16-1.55-14.33-2.32-21.5C.48,8.31.03,6.08,0,3.81-.02,1.6,1.21.25,3.4.04,3.98-.01,4.56,0,5.14,0c10.02,0,20.04,0,30.07,0Zm.01,16.74c-5.86,0-11.71.03-17.57-.02-1.17-.01-1.49.36-1.39,1.5.6,6.77,1.16,13.54,1.72,20.31.19,2.34.16,2.34,2.54,2.34,7.63,0,15.26,0,22.89,0,.85,0,1.57,0,1.45,1.23-.27,2.74-.47,5.5-.65,8.25-.06.92-.45,1.37-1.36,1.61-4.51,1.2-9.01,2.02-13.57.27-.11-.04-.24-.05-.36-.07-2.49-.49-2.55-.57-2.67-3.12,0-.08-.01-.17,0-.25.08-.79-.26-1.11-1.07-1.09-1.77.04-3.55.04-5.32,0-.92-.02-1.06.33-.97,1.2.26,2.46.47,4.92.55,7.39.04,1.1.44,1.6,1.46,1.92,4.33,1.33,8.65,2.71,12.96,4.13.99.33,1.9.33,2.89,0,3.72-1.22,7.43-2.5,11.2-3.54,2.09-.58,3.09-1.33,3.23-3.82.37-6.9.97-13.8,1.79-20.67.1-.87-.16-1.29-1.13-1.27-2.18.05-4.37,0-6.56,0-6.31.01-12.62.03-18.93.06-.9,0-1.51-.16-1.58-1.24-.12-1.89-.33-3.77-.47-5.66-.12-1.57,0-1.68,1.59-1.68,8.45,0,16.91-.01,25.36-.02.49,0,.99,0,1.48-.04.61-.04.97-.3,1.02-.98.13-1.77.27-3.53.48-5.29.13-1.14-.28-1.49-1.43-1.48-5.86.05-11.71.02-17.57.02Z"/>
  </g>
</svg>