<?xml version="1.0" encoding="UTF-8"?>
<svg id="Camada_2" data-name="Camada 2" xmlns="http://www.w3.org/2000/svg" viewBox="0 0 72.91 72.91">
  <g id="Adobe_Illustrator" data-name="Adobe Illustrator">
    <g>
      <path d="m72.91,36.59c0,9.53,0,19.05,0,28.58,0,5.03-2.69,7.74-7.69,7.74-19.18,0-38.35,0-57.53,0-4.97,0-7.68-2.68-7.68-7.62C0,46.03,0,26.77,0,7.51,0,2.76,2.78,0,7.56,0c19.26,0,38.52,0,57.78,0,4.83,0,7.56,2.76,7.57,7.63,0,9.65,0,19.3,0,28.95Zm-32.1,15.62c.66,0,1.32-.03,1.98,0,.89.05,1.06-.29.77-1.11-3.62-10.08-7.23-20.16-10.82-30.25-.22-.63-.52-.97-1.23-.96-1.52.03-3.05.03-4.58,0-.79,0-1.13.37-1.39,1.11-1.84,5.2-3.74,10.39-5.6,15.58-1.74,4.85-3.44,9.71-5.18,14.55-.27.74-.13,1.09.71,1.07,1.24-.02,2.47-.04,3.71,0,.77.03,1.09-.33,1.31-1.02.64-2.04,1.37-4.06,1.98-6.11.25-.86.71-1.24,1.58-1.24,3.26,0,6.51,0,9.77,0,.97,0,1.49.45,1.73,1.4.36,1.39.76,2.79,1.27,4.13,1.27,3.35.24,2.75,3.98,2.82Zm8.35-12.25h0c0,3.63.02,7.26-.02,10.88-.01.99.26,1.46,1.32,1.38.9-.07,1.82-.06,2.72,0,.97.06,1.3-.32,1.3-1.29-.03-7.25-.03-14.51,0-21.77,0-.93-.27-1.39-1.27-1.33-.9.05-1.82.05-2.72-.01-1.03-.07-1.36.37-1.35,1.38.04,3.59.02,7.17.02,10.76Zm2.71-22.3c-2.1,0-3.25,1-3.25,2.83,0,1.91,1.13,3.02,3.09,3.02,2.01,0,3.41-1.28,3.42-3.1,0-1.67-1.27-2.75-3.25-2.75Z"/>
      <path d="m29.04,39.51c-1.15,0-2.31-.02-3.46,0-.89.02-1.2-.28-.9-1.18,1.29-3.86,2.54-7.73,3.81-11.6.09-.28.21-.59.53-.6.43-.01.46.38.56.69,1.23,3.79,2.43,7.6,3.71,11.38.34,1.01.14,1.36-.92,1.32-1.11-.04-2.22,0-3.33-.01Z"/>
    </g>
  </g>
</svg>