<?xml version="1.0" encoding="UTF-8"?>
<svg id="Camada_2" data-name="Camada 2" xmlns="http://www.w3.org/2000/svg" viewBox="0 0 72.91 72.91">
  <g id="JavaScript">
    <path d="m72.91,36.45c0,9.57,0,19.13,0,28.7,0,5.09-2.68,7.75-7.8,7.76-19.09,0-38.19,0-57.28,0-5.19,0-7.82-2.64-7.82-7.86C0,45.95,0,26.86,0,7.77,0,2.67,2.68,0,7.79,0,26.89,0,45.98,0,65.08,0c5.18,0,7.83,2.68,7.83,7.87,0,9.53,0,19.05,0,28.58Zm-18,26.68c2.7.14,5.32-.37,7.61-2.1,3.72-2.8,3.89-9.4.3-12.1-1.39-1.05-3.05-1.4-4.7-1.78-1.88-.43-3.84-.59-5.65-1.31-1.96-.79-2.34-2.91-.82-4.25,1.72-1.51,5.59-1.26,6.67.71.82,1.51,1.87,1.58,3.21,1.52.66-.03,1.32,0,1.98-.01,1.42-.02,1.53-.21,1.17-1.63-.63-2.47-2.24-4.15-4.49-5.1-3.73-1.59-7.55-1.55-11.31-.02-2.93,1.19-4.7,4.01-4.6,7.13.12,3.51,1.72,5.8,4.97,6.91,1.16.4,2.39.62,3.59.89,1.61.36,3.26.56,4.75,1.31,1.82.91,1.99,2.83.41,4.11-1.76,1.43-5.93,1.32-7.16-.54-1-1.51-2.17-1.6-3.63-1.52-.82.05-1.65.03-2.47,0-.78-.02-1,.26-.83,1.05.62,2.97,2.39,4.92,5.2,5.94,1.84.67,3.77.86,5.82.79Zm-18.54-16.42c0-3.32-.04-6.04.02-8.76.02-1.05-.25-1.51-1.38-1.43-1.23.09-2.48.1-3.7,0-1.24-.1-1.53.42-1.51,1.57.05,5.07.03,10.13.03,15.2,0,.53,0,1.08-.08,1.6-.28,1.75-1.32,2.78-2.87,2.89-1.55.11-2.69-.75-3.18-2.49-.19-.66-.49-.96-1.2-.94-1.32.04-2.64.04-3.95.02-.89-.02-1.17.41-1.07,1.23.26,2.26,1.15,4.19,2.97,5.63,2.76,2.18,5.96,2.28,9.19,1.75,3.84-.62,6.05-3.15,6.55-7,.42-3.29.05-6.58.19-9.27Z"/>
  </g>
</svg>