<?xml version="1.0" encoding="UTF-8"?>
<svg id="Camada_2" data-name="Camada 2" xmlns="http://www.w3.org/2000/svg" viewBox="0 0 72.91 72.91">
  <g id="LinkedIn">
    <path d="m0,36.47C0,26.9,0,17.33,0,7.76,0,2.67,2.69,0,7.8,0,26.94,0,46.08,0,65.21,0c5,0,7.7,2.72,7.7,7.75,0,19.18,0,38.35,0,57.53,0,4.86-2.73,7.62-7.56,7.62-19.26,0-38.52,0-57.78,0-4.85,0-7.55-2.72-7.56-7.62-.01-9.61,0-19.22,0-28.83Zm38.5-4.18c-.28-1-.12-1.95-.12-2.87,0-.81-.33-1.08-1.11-1.07-2.27.03-4.54.04-6.8,0-.88-.02-1.14.34-1.13,1.17.02,9.57.02,19.13,0,28.7,0,.92.37,1.23,1.25,1.22,2.27-.04,4.54-.07,6.8,0,1.14.03,1.5-.36,1.49-1.49-.04-4.99,0-9.98,0-14.97,0-1.17.18-2.3.53-3.41.77-2.43,2.91-3.8,5.66-3.65,2.55.14,4.05,1.52,4.57,4.21.17.89.25,1.79.25,2.7,0,5.03.04,10.06-.01,15.09-.01,1.21.4,1.57,1.58,1.53,2.14-.08,4.29-.09,6.43-.01,1.19.04,1.56-.38,1.55-1.56-.05-5.81-.03-11.63-.02-17.44,0-1.2-.07-2.39-.28-3.57-.52-2.86-1.41-5.51-3.91-7.32-4.03-2.91-10.93-2.57-14.65.75-.69.62-1.33,1.28-2.07,2Zm-25.01,11.52h0c0,4.74.02,9.49-.02,14.23,0,.98.26,1.43,1.33,1.4,2.31-.06,4.62-.06,6.93-.01.97.02,1.29-.35,1.29-1.31-.02-9.49-.02-18.97,0-28.46,0-1.07-.43-1.33-1.41-1.31-2.23.05-4.46.08-6.68,0-1.17-.05-1.47.37-1.46,1.49.05,4.66.02,9.32.02,13.98Zm4.69-20.27c3.21,0,5.59-2.35,5.57-5.49-.02-3.06-2.49-5.54-5.47-5.52-3.18.03-5.76,2.39-5.74,5.26.02,3.29,2.44,5.75,5.65,5.75Z"/>
  </g>
</svg>