<?xml version="1.0" encoding="utf-8"?>
<!-- Generator: Adobe Illustrator 27.3.1, SVG Export Plug-In . SVG Version: 6.00 Build 0)  -->
<svg version="1.1" id="Camada_2_00000076580110149770907230000007673806206540008598_"
	 xmlns="http://www.w3.org/2000/svg" xmlns:xlink="http://www.w3.org/1999/xlink" x="0px" y="0px" viewBox="0 0 129.3 136.3"
	 style="enable-background:new 0 0 129.3 136.3;" xml:space="preserve">
<g id="Camada_1-2">
	<path d="M34,0v136.3h61.3V53.6L68.2,40v75.7h-7V20.5h7v11.9L95.3,46V0C95.3,0,34,0,34,0z"/>
	<polygon points="129.3,0 129.3,49 102.1,35.5 102.1,20.5 98.8,20.5 98.8,0 	"/>
	<polygon points="107,45.4 107,74.2 98.9,82.6 98.9,53.8 	"/>
	<polygon points="0,0 0,49 27.1,35.5 27.1,20.5 30.5,20.5 30.5,0 	"/>
	<polygon points="22.3,45.4 22.3,74.2 30.4,82.6 30.4,53.8 	"/>
</g>
</svg>
