<?xml version="1.0" encoding="UTF-8"?>
<svg id="Camada_2" data-name="Camada 2" xmlns="http://www.w3.org/2000/svg" viewBox="0 0 72.91 72.91">
  <g id="Adobe_Photoshop" data-name="Adobe Photoshop">
    <g>
      <path d="m72.91,36.59c0,9.53,0,19.05,0,28.58,0,5.03-2.69,7.74-7.69,7.74-19.18,0-38.35,0-57.53,0-4.97,0-7.68-2.68-7.68-7.62C0,46.03,0,26.77,0,7.51,0,2.76,2.77,0,7.56,0c19.26,0,38.52,0,57.78,0,4.83,0,7.56,2.76,7.57,7.63,0,9.65,0,19.3,0,28.95Zm-59.41-.47c0,4.91.03,9.82-.02,14.72-.01,1.17.39,1.55,1.51,1.46.9-.07,1.82-.07,2.72-.01,1,.06,1.39-.3,1.37-1.34-.06-2.47-.02-4.95-.02-7.42,0-1.85.05-1.9,1.85-1.91,2.27,0,4.54.09,6.8-.04,3.17-.18,5.77-1.52,7.62-4.2,1.66-2.4,2.01-5.08,1.82-7.91-.35-5.25-4.36-9.2-9.61-9.29-4.21-.07-8.41.01-12.62-.06-1.18-.02-1.45.42-1.44,1.52.05,4.82.02,9.65.02,14.48Zm36.84,16.63c1.98.16,4.05-.34,6.04-1.21,2.97-1.3,4.42-3.74,4.27-7.12-.11-2.58-1.74-4.44-4.81-5.46-.55-.18-1.11-.32-1.67-.46-1.8-.44-3.62-.8-5.4-1.32-2.11-.62-2.99-1.57-2.93-2.87.06-1.35,1.3-2.44,3.35-2.77,1.94-.31,3.95-.24,5.16,1.51.77,1.11,1.57,1.43,2.76,1.35.66-.04,1.32-.04,1.98,0,.94.05,1.16-.37.93-1.21-.48-1.8-1.44-3.24-3.1-4.13-3.37-1.82-6.92-1.95-10.55-1-1.55.4-2.89,1.19-4,2.36-2.94,3.12-2.09,8.1,1.68,10.08,1.89.99,3.97,1.35,6.01,1.84,1.36.32,2.76.55,3.98,1.29,1.47.9,1.71,2.59.57,3.79-1.81,1.92-7.43,2.22-8.91-.72-.31-.61-.75-.8-1.39-.78-1.11.04-2.23.03-3.34.03-.83,0-1.09.34-.84,1.17.53,1.8,1.59,3.15,3.19,4.09,2.09,1.22,4.39,1.61,7,1.55Z"/>
      <path d="m19.06,30.83c0-1.69,0-3.38,0-5.07,0-.71.16-1.24,1.04-1.16,1.93.17,3.85-.07,5.79.11,3.77.35,5.75,2.53,5.7,6.51-.04,3.45-2.28,5.67-5.88,5.81-1.73.07-3.46.07-5.18.15-1.14.06-1.53-.43-1.49-1.54.07-1.6.02-3.21.02-4.82Z"/>
    </g>
  </g>
</svg>