<?xml version="1.0" encoding="UTF-8"?>
<svg id="Camada_2" data-name="Camada 2" xmlns="http://www.w3.org/2000/svg" viewBox="0 0 79.42 79.44">
  <g id="WhatsApp">
    <path d="m79.4,39.26c-.07,18.37-12.47,35.2-31.85,39.3-9.2,1.95-17.94.59-26.23-3.78-.89-.47-1.72-.43-2.62-.2-5.62,1.48-11.24,2.94-16.86,4.4-.38.1-.81.42-1.14.03-.3-.36-.01-.79.1-1.18,1.65-5.61,2.91-11.33,4.68-16.91.2-.64.06-1.17-.27-1.75C-3.48,44.18-.97,25.78,10.32,13.24,17.28,5.52,26.07,1.14,36.35.18c10.28-.96,19.61,2.01,27.74,8.36,8.4,6.57,13.2,15.33,14.96,25.8.3,1.75.42,3.52.35,4.92Zm-30.07,18.75c6.27.08,9.63-2.72,10.5-7.72.18-1.06-.09-1.77-1.05-2.22-2.49-1.18-4.99-2.36-7.48-3.56-.98-.47-1.72-.26-2.38.58-.89,1.14-1.81,2.24-2.73,3.36-.62.77-1.36.96-2.31.57-5.68-2.35-10.09-6.15-13.24-11.44-.5-.85-.44-1.51.21-2.23.85-.95,1.73-1.89,2.28-3.06.28-.59.39-1.16.15-1.79-1.03-2.69-2.11-5.37-3.35-7.98-.24-.51-.58-.9-1.15-1.04-2.15-.52-4.1-.27-5.65,1.49-1.33,1.51-2.29,3.2-2.68,5.21-.69,3.5.13,6.75,1.85,9.75,3.37,5.86,7.71,10.92,13.3,14.78,4.45,3.07,9.48,4.71,13.71,5.3Z"/>
  </g>
</svg>